<svg width="309" height="343" viewBox="0 0 309 343" fill="none" xmlns="http://www.w3.org/2000/svg">
<path d="M153.567 42.7333C183.981 42.7333 212.673 49.3055 239.644 62.45C266.615 75.5944 289.055 94.4444 306.967 119C308.411 120.733 308.844 122.394 308.267 123.983C307.689 125.572 306.678 126.8 305.233 127.667C303.789 128.533 302.279 128.91 300.705 128.798C299.128 128.685 297.748 127.73 296.567 125.933C280.1 102.822 259.233 85.2 233.967 73.0667C208.701 60.9333 181.901 54.8667 153.567 54.8667C125.544 54.8667 99.111 61.0778 74.2665 73.5C49.4221 85.9222 28.7665 103.4 12.2999 125.933C10.8554 127.956 9.26653 128.967 7.5332 128.967C5.79986 128.967 4.21097 128.389 2.76653 127.233C1.75542 126.367 1.14153 125.283 0.924863 123.983C0.708197 122.683 1.0332 121.311 1.89986 119.867C20.0999 95.8889 42.4295 77.0389 68.8889 63.3167C95.3453 49.5944 123.571 42.7333 153.567 42.7333ZM153.588 83.4667C191.996 83.4667 224.994 96.2587 252.583 121.843C280.172 147.427 293.967 179.124 293.967 216.933C293.967 230.76 289.092 242.305 279.342 251.57C269.589 260.834 257.708 265.467 243.7 265.467C229.833 265.467 217.844 260.834 207.733 251.57C197.622 242.305 192.567 230.76 192.567 216.933C192.567 206.822 188.814 198.228 181.309 191.15C173.806 184.072 164.848 180.533 154.433 180.533C143.782 180.533 134.62 184.033 126.947 191.033C119.271 198.033 115.433 206.666 115.433 216.933C115.433 245.819 124.028 269.942 141.217 289.3C158.405 308.656 180.144 322.089 206.433 329.6C208.325 330.195 209.664 331.187 210.45 332.577C211.239 333.969 211.344 335.46 210.767 337.049C210.189 338.439 209.322 339.711 208.167 340.867C207.011 342.022 205.278 342.311 202.967 341.733C174.078 334.222 150.244 319.482 131.467 297.512C112.689 275.542 103.3 248.682 103.3 216.933C103.3 203.067 108.355 191.511 118.467 182.267C128.578 173.022 140.577 168.4 154.464 168.4C168.35 168.4 180.195 173.022 189.997 182.267C199.799 191.511 204.7 203.067 204.7 216.933C204.7 227.2 208.555 235.834 216.266 242.834C223.979 249.833 233.079 253.333 243.566 253.333C254.055 253.333 263.055 249.794 270.567 242.717C278.078 235.639 281.833 227.044 281.833 216.933C281.833 182.688 269.223 153.905 244.003 130.583C218.78 107.261 188.664 95.6 153.653 95.6C118.64 95.6 88.6388 107.304 63.6499 130.713C38.661 154.119 26.1665 182.859 26.1665 216.933C26.1665 224.011 27.0332 232.858 28.7665 243.475C30.4999 254.092 33.6776 266.333 38.2999 280.2C38.8776 281.933 38.8776 283.45 38.2999 284.75C37.7221 286.05 36.5665 287.133 34.8332 288C33.0999 288.867 31.511 288.929 30.0665 288.186C28.6221 287.447 27.611 286.229 27.0332 284.533C22.411 272.4 19.0888 260.917 17.0665 250.083C15.0443 239.25 14.0332 228.2 14.0332 216.933C14.0332 179.124 27.7612 147.427 55.2172 121.843C82.6732 96.2587 115.464 83.4667 153.588 83.4667ZM154.433 0.266663C172.541 0.266663 190.225 2.50555 207.486 6.98333C224.744 11.4611 241.438 17.8889 257.567 26.2667C259.878 27.4222 261.178 28.7944 261.467 30.3833C261.755 31.9722 261.611 33.4889 261.033 34.9333C260.455 36.3778 259.372 37.3889 257.783 37.9667C256.194 38.5444 254.678 38.4 253.233 37.5333C238.211 28.8667 222.326 22.5111 205.58 18.4667C188.83 14.4222 171.71 12.4 154.221 12.4C137.029 12.4 120.2 14.6389 103.733 19.1167C87.2665 23.5944 71.2332 29.7333 55.6332 37.5333C54.7665 38.1111 53.5388 38.1833 51.9499 37.75C50.361 37.3167 49.2776 36.3778 48.6999 34.9333C48.1221 33.4889 47.9054 32.0444 48.0499 30.6C48.1943 29.1555 48.9888 28 50.4332 27.1333C66.3221 18.1778 83.0776 11.4611 100.7 6.98333C118.322 2.50555 136.233 0.266663 154.433 0.266663ZM154.455 125.933C180.729 125.933 203.183 134.672 221.817 152.15C240.45 169.628 249.767 191.222 249.767 216.933C249.767 218.753 249.21 220.219 248.098 221.332C246.986 222.444 245.52 223 243.7 223C242.255 223 240.883 222.444 239.583 221.332C238.283 220.219 237.633 218.753 237.633 216.933C237.633 194.689 229.403 175.983 212.942 160.817C196.484 145.65 176.984 138.067 154.442 138.067C131.903 138.067 112.4 145.65 95.9332 160.817C79.4665 175.983 71.2332 194.677 71.2332 216.899C71.2332 240.9 75.4221 261.133 83.7999 277.6C92.1776 294.067 104.167 310.795 119.767 327.784C121.5 329.573 122.15 331.261 121.717 332.85C121.283 334.439 120.633 335.667 119.767 336.533C118.611 337.689 117.239 338.339 115.65 338.483C114.061 338.628 112.544 337.978 111.1 336.533C94.9221 319.2 82.211 301.144 72.9665 282.367C63.7221 263.589 59.0999 241.773 59.0999 216.92C59.0999 191.218 68.4237 169.628 87.0715 152.15C105.716 134.672 128.178 125.933 154.455 125.933ZM153.476 210.867C155.27 210.867 156.744 211.473 157.9 212.687C159.055 213.9 159.633 215.316 159.633 216.933C159.633 239.487 167.65 257.982 183.683 272.417C199.717 286.85 218.567 294.067 240.233 294.067C243.411 294.067 246.589 293.922 249.767 293.633C252.944 293.344 256.122 292.911 259.3 292.333C260.744 292.044 261.972 292.261 262.983 292.983C263.994 293.706 264.789 294.964 265.367 296.758C265.944 298.349 265.655 299.743 264.5 300.939C263.344 302.135 261.9 303.022 260.167 303.6C257.567 304.178 254.461 304.756 250.85 305.333C247.239 305.911 243.7 306.2 240.233 306.2C215.389 306.2 193.722 297.738 175.233 280.815C156.744 263.892 147.5 242.598 147.5 216.933C147.5 215.316 148.047 213.9 149.142 212.687C150.24 211.473 151.684 210.867 153.476 210.867Z" fill="#F5F5F5"/>
</svg>
