<svg width="776" height="628" viewBox="0 0 776 628" fill="none" xmlns="http://www.w3.org/2000/svg">
<path d="M387 628C329 628 275.333 613 226 583C176.667 553 137.333 511.667 108 459C90.6667 453.667 74.6667 448 60 442C45.3333 436 30 429.333 14 422C9.33333 420 5.83333 416.833 3.5 412.5C1.16667 408.167 0 403.333 0 398V230C0 224.667 1.16667 219.833 3.5 215.5C5.83333 211.167 9.33333 208 14 206C30 198.667 45.3333 192 60 186C74.6667 180 90.6667 174.333 108 169C137.333 116.333 176.667 75 226 45C275.333 15 329 0 387 0C445 0 498.667 15 548 45C597.333 75 636.667 116.333 666 169C683.333 174.333 699.333 180 714 186C728.667 192 744 198.667 760 206C765.333 208.667 769.333 212.167 772 216.5C774.667 220.833 776 225.667 776 231V398C776 403.333 774.667 408.167 772 412.5C769.333 416.833 765.333 420 760 422C744 429.333 728.667 436 714 442C699.333 448 683.333 453.667 666 459C636.667 511.667 597.333 553 548 583C498.667 613 445 628 387 628ZM387 600C437 600 482.167 588.5 522.5 565.5C562.833 542.5 597.667 510.667 627 470C589.667 480 550.833 487.833 510.5 493.5C470.167 499.167 429 502 387 502C345 502 303.833 499.167 263.5 493.5C223.167 487.833 184.333 480 147 470C176.333 510.667 211.167 542.5 251.5 565.5C291.833 588.5 337 600 387 600ZM387 28C337 28 291.833 39.5 251.5 62.5C211.167 85.5 176.333 117.333 147 158C184.333 148 223.167 140.167 263.5 134.5C303.833 128.833 345 126 387 126C429 126 470.167 128.833 510.5 134.5C550.833 140.167 589.667 148 627 158C597.667 117.333 562.833 85.5 522.5 62.5C482.167 39.5 437 28 387 28Z" fill="#F5F5F5"/>
</svg>
